<svg xmlns="http://www.w3.org/2000/svg" viewBox="0 0 70 70">
   <rect width="58.3" height="6.2" x="6" y="59" rx=".8" />
   <rect width="58.3" height="6.2" x="6" y="20" rx=".8" />
   <path
      d="M8 27v31h54V27Zm15 10h-3v3h-2v-3h-3v-2h3v-2h2v2h2Zm8 16 6-9h-8l5-11 6-1-7 9h8Zm24-16h-7v-2h7ZM22 15a2 2 0 0 0-2-2h-2a2 2 0 0 0-2 2v4h6Zm32 0a2 2 0 0 0-1-2h-3a2 2 0 0 0-2 2v4h6Zm-32 1h25v3H22zm40 1a2 2 0 0 0-1-1h-6v3h7Zm-47-1H9a2 2 0 0 0-2 1v2h8Zm11-6a2 2 0 0 1 2-2h14a2 2 0 0 1 2 2v5h2V8a3 3 0 0 0-3-3H27a3 3 0 0 0-3 3v7h2Z"
   />
</svg>
