<svg xmlns="http://www.w3.org/2000/svg" viewBox="0 0 70 70">
   <path
      fill="#444"
      d="M44 13a14 14 0 0 0-11-3 14 14 0 0 0-12 12 15 15 0 0 0 3 10 10 10 0 0 1 2 7v1a3 3 0 0 0 0 1 1 1 0 0 0 0 1 1 1 0 0 0 1 1h1v11a2 2 0 0 0 2 2h10a2 2 0 0 0 3-2V43a1 1 0 0 0 1-1 1 1 0 0 0 0-1 3 3 0 0 0 0-1v-1a11 11 0 0 1 2-7 14 14 0 0 0-2-19ZM33 53a2 2 0 0 1-2 2 2 2 0 0 1-2-2V43h4Zm-1-14a2 2 0 0 1-1-1v-3a1 1 0 0 1 1-1v-1 3a1 1 0 0 0 1 0v-3l1-1a2 2 0 0 1 2 0l1 1v3a1 1 0 0 0 1 0v-3 1a1 1 0 0 1 1 1v3a2 2 0 0 1-1 1l-1 1v1h-4v-1l-1-1Zm3 15a1 1 0 1 1 1-1 1 1 0 0 1-1 1Zm11-22a12 12 0 0 0-3 7v1a1 1 0 0 1-1 1h-4v-1h1a2 2 0 0 0 1-2v-3a3 3 0 0 0-1-2l-1-1a1 1 0 0 1 0-1l1-1a3 3 0 0 0 2-3v-4a1 1 0 0 0-1 0v4a2 2 0 0 1-1 2l-1 1a3 3 0 0 0-1 2l-1-1a2 2 0 0 0-2 0l-1 1a3 3 0 0 0-1-2l-1-1a2 2 0 0 1-1-2v-4a1 1 0 0 0-1 0v4a3 3 0 0 0 2 3l1 1a1 1 0 0 1 0 1l-1 1a3 3 0 0 0-1 2v3a2 2 0 0 0 1 2h1v1h-4a1 1 0 0 1-1-1v-1a12 12 0 0 0-2-7 14 14 0 0 1-3-10 13 13 0 0 1 12-11h1a13 13 0 0 1 9 3 13 13 0 0 1 4 10 13 13 0 0 1-2 8Z"
   />
   <circle cx="35" cy="53" r=".8" fill="#444" />
   <path
      d="M30 57h11v2H30zm3 3a1 1 0 0 0 1-1h-3a1 1 0 0 0 2 1Zm4 0a1 1 0 0 0 2-1h-3a1 1 0 0 0 1 1Zm4-40-1 1v-1h-2v-1h-1l-1 1-1-1-1 1-1-1-1 1-1-1a1 1 0 0 0-1 1v1l-1-1a1 1 0 0 0 0 1l1 1 1-1h2v-1l1 1 1-1 1 1 1-1v1h2l1 1 1-1s1 0 0 0a1 1 0 0 0 0-1Z"
   />
</svg>
