<svg xmlns="http://www.w3.org/2000/svg" width="64.8" height="50.9" viewBox="0 0 65 51"><path d="M11 28a5 5 0 0 0 3 0 14 14 0 0 0 3-3 29 29 0 0 0 5-7 28 28 0 0 0 3-8 15 15 0 0 0 0-4 4 4 0 0 0-1-3l-5-2a8 8 0 0 0-8 0v1a8 8 0 0 1 3 3 12 12 0 0 1 0 2v2a28 28 0 0 1 0 4 28 28 0 0 0 0-4l-1-1a11 11 0 0 0-1-2 6 6 0 0 0-3-2 5 5 0 0 0-1-1L4 6 3 7c-2 1-3 5-3 9 0 5 2 9 4 10ZM1 15c0-4 2-7 4-7s4 3 4 7-2 6-4 6-4-3-4-6Z" class="a"/><path d="M64 43a3 3 0 0 0-2-2l-2 1-2 1-1 5v-5l-1-9a9 9 0 0 0-3-6 8 8 0 0 1-3 3 13 13 0 0 0 2-4c1-6 0-12-4-13l-2-1 1-8-1-1a2 2 0 0 0-2 0l-9 4-7-3v1a17 17 0 0 1-1 5 30 30 0 0 1-3 8 30 30 0 0 1-6 7 15 15 0 0 1-4 2 6 6 0 0 1-3 0l23 8a16 16 0 0 0 7-4 12 12 0 0 1-3 5l2 1a4 4 0 0 0 1 0c2 1 6-1 8-5a2 2 0 0 1 0 1l1 12a6 6 0 0 0 5 5 6 6 0 0 0 3-1l4-2h2a4 4 0 0 0 1-3 5 5 0 0 0-1-2ZM43 9a1 1 0 0 1-1 1 1 1 0 0 1 0-2 1 1 0 0 1 1 0 1 1 0 0 1 0 1Z" class="a"/></svg>