<svg xmlns="http://www.w3.org/2000/svg" viewBox="0 0 387.1 386">
   <g>
      <path
         d="m65 48 16 45v1c-7 7-13 16-18 25l-50-2-3 7a191 191 0 0 0-8 27l40 27v1h1l-1 15h89a62 62 0 0 1 27-51 65 65 0 0 1 26-11h4l3-1h7a65 65 0 0 1 27 7c22 11 35 33 35 56h89l-1-15 41-27a189 189 0 0 0-11-35l-50 2-1-2a151 151 0 0 0-16-22l16-46-4-3a198 198 0 0 0-26-18l-39 29-1-1a156 156 0 0 0-27-8L216 1l-6-1h-29l-3 1-14 46-30 9-39-29-4 2a199 199 0 0 0-23 17l-3 2zm182 39 4 1c5 3 7 9 4 14-2 5-9 7-14 5-5-3-7-9-4-14 1-4 6-6 10-6zM98 135l4 1c5 2 7 8 4 14-2 5-9 7-14 4s-7-9-4-14c2-4 6-6 10-5z"
      />
      <path
         d="m326 338-16-45v-1c7-7 13-16 18-25l50 2 3-7a191 191 0 0 0 8-27l-40-27v-1h-1l1-15h-89a62 62 0 0 1-27 51 65 65 0 0 1-26 11h-4l-3 1h-7a65 65 0 0 1-27-7 63 63 0 0 1-35-56H42l1 15-41 27a189 189 0 0 0 12 35l49-2 1 2a150 150 0 0 0 16 22l-16 46 4 3a196 196 0 0 0 26 18l39-29 1 1h1a156 156 0 0 0 26 8l14 47 6 1h29l3-1 14-46 30-9 39 29 4-2a197 197 0 0 0 23-17l3-2zm-182-39-4-1c-5-3-7-9-4-14 2-5 9-7 14-5 5 3 7 9 5 14-2 4-6 6-11 6zm149-48-4-1c-5-2-7-8-4-14 2-5 9-7 14-4s7 9 4 14c-2 4-6 6-10 5z"
      />
      <path
         d="M196 99a93 93 0 0 0 0 186 93 93 0 0 0 0-186zm0 21a72 72 0 1 1 0 144 72 72 0 1 1 0-144z"
      />
      <path
         d="M196 102a90 90 0 1 0 0 180 90 90 0 0 0 0-180zm0 15a75 75 0 1 1 0 150 75 75 0 0 1 0-150z"
      />
      <circle cx="246.9" cy="98" r="17" />
      <circle cx="100.9" cy="146" r="17" />
      <circle cx="144.9" cy="290" r="17" />
      <circle cx="298.9" cy="242" r="17" />
   </g>
   <circle cx="193.5" cy="194" r="91" fill="#fff" />
</svg>
