<svg xmlns="http://www.w3.org/2000/svg" xml:space="preserve" width="500" height="500"><path fill="#f72f3a" stroke="#fff" stroke-width="7" d="M250 316a40 40 0 1 1 0 80 40 40 0 0 1 0-80z" vector-effect="non-scaling-stroke"/><path fill="#f72f3a" stroke="#fff" stroke-width="7" d="M203 290a40 40 0 1 1 0 80 40 40 0 0 1 0-80zm94 0a40 40 0 1 1-1 80 40 40 0 0 1 1-80z" vector-effect="non-scaling-stroke"/><path fill="#f72f3a" stroke="#fff" stroke-width="7" d="M250 264a40 40 0 1 1 0 80 40 40 0 0 1 0-80z" vector-effect="non-scaling-stroke"/><path fill="#f72f3a" stroke="#fff" stroke-width="7" d="M332 242a40 40 0 1 1 0 80 40 40 0 0 1 0-80zm-163 0a40 40 0 1 1 0 80 40 40 0 0 1 0-80z" vector-effect="non-scaling-stroke"/><path fill="#f72f3a" stroke="#fff" stroke-width="7" d="M203 228a40 40 0 1 1 0 80 40 40 0 0 1 0-80z" vector-effect="non-scaling-stroke"/><path fill="#f72f3a" stroke="#fff" stroke-width="7" d="M160 180a40 40 0 1 1 0 80 40 40 0 0 1 0-80zm137 48a40 40 0 1 1 0 80 40 40 0 0 1 0-80z" vector-effect="non-scaling-stroke"/><path fill="#f72f3a" stroke="#fff" stroke-width="7" d="M250 216a40 40 0 1 1 0 80 40 40 0 0 1 0-80z" vector-effect="non-scaling-stroke"/><path fill="#f72f3a" stroke="#fff" stroke-width="7" d="M208 180a40 40 0 1 1 0 80 40 40 0 0 1 0-80zm132 0a40 40 0 1 1 0 80 40 40 0 0 1 0-80z" vector-effect="non-scaling-stroke"/><path fill="#f72f3a" stroke="#fff" stroke-width="7" d="M292 180a40 40 0 1 1 0 80 40 40 0 0 1 0-80z" vector-effect="non-scaling-stroke"/><path fill="#8cc152" d="M250 83c6 0 11 22 11 50 0 27-5 50-11 50s-11-23-11-50c0-28 5-50 11-50zm90 21c4 5-8 24-28 44-20 19-39 32-43 27-5-4 8-23 27-43 20-20 39-32 44-28zm-180 0c-4 5 8 24 28 44 20 19 39 32 43 27 5-4-8-23-27-43-20-20-39-32-44-28z" vector-effect="non-scaling-stroke"/></svg>