<svg xmlns="http://www.w3.org/2000/svg" viewBox="0 0 256 256">
   <path
      d="M134 45c-4 5-8 20-10 40l-1 10c-1 0-5-5-7-10l-5-14c0-5-2-9-2-9-2-2-6 0-13 7-7 6-7 6-11 6-2-1-8-2-12-5l-9-3c-2 2-1 7 2 14l3 7-4 3c-9 6-13 16-12 26 1 4 1 7-1 11-4 9-2 22 4 27 2 2 2 3 1 9-1 13 4 23 15 28 7 3 7 3 8 8 3 10 11 17 19 19 3 0 5 1 8 5 7 9 17 12 28 9 5-2 7-3 12-8l8-6c7 0 17-10 20-18 1-6 1-6 8-9 11-5 16-14 15-27-1-6-1-7 2-10 5-7 7-18 3-27-2-4-2-7-2-12 1-8-1-15-7-21l-7-6h-2l4-7c3-8 4-14 2-15l-6 3c-3 3-5 3-11 4l-8 1-6-6c-6-7-10-9-13-8l-3 8-5 15-6 9c-2 1-2 1-2-6 0-8 2-24 4-30l5-8 2-5c-1-3-5-2-8 1m17 30c-2 6-7 15-11 20l-3 5c1 1 18 0 21-1 6-2 4-20-3-27l-3-2-1 5m-51-1c-6 7-6 14-2 20 4 5 9 7 14 7l5-1-3-4c-4-4-6-11-8-18l-2-7-4 3m-27 6c0 2 8 11 13 14 4 3 4 3 4 1l-2-7-2-5-6-2a389 389 0 0 0-7-1m100 2c-4 0-4 1-3 7v5l5-5c7-8 7-9-2-7m5 15-7 5-4 2 3 6c2 5 2 6 1 13v8h6c9-1 15-6 17-14s-2-18-10-22c-4-1-3-1-6 2M66 99c-12 12-5 30 12 32h6v-9c0-8 0-10 2-14l2-4-4-2-6-5c-3-3-7-3-12 2m28 10c-1 1-3 4-4 9 0 4 0 6 2 9 5 11 16 14 27 9 3-2 4-4 3-6-1-3-2-13-1-18l1-4h-13l-15 1m36 1-2 8c-1 11 6 19 17 21 9 1 20-8 19-18 0-6-1-9-3-11-1-2-4-2-15-2-13 0-14 0-16 2m-73 22c-1 2 0 11 1 15 4 7 11 11 19 10 3 0 3-1 3-3v-15l-6-1c-2-1-7-2-9-4-6-3-7-4-8-2m133 2c-2 2-7 3-10 4l-5 1v17l5 1c10 0 18-8 18-18 0-9-1-10-8-5m-103 7c-4 15 11 28 25 22 7-3 12-11 12-18 0-3 0-3-4-2-4 3-13 3-18 2l-9-5-5-3-1 4m76-1-9 5c-8 2-12 1-21-2-4-2-2 9 3 15 10 14 33 5 32-12l-1-7c0-2-1-1-4 1m-40 24-9 6-5 2v6c2 16 19 22 31 11 4-3 6-8 6-14 0-3 0-3-4-4l-9-6-6-4-4 3m-58 0c-2 2 0 13 4 17 3 3 9 6 14 6 7 0 15-6 17-13 1-1 1-2-2-3l-8-4c-5-3-6-3-10-3H65m121 0h-10c-5 0-6 0-10 3l-9 4c-3 1-3 2-2 3 1 4 5 9 9 11 6 4 18 2 22-4 4-4 7-16 4-17h-4m-86 24-8 5c-6 3-6 4-2 11 3 5 9 8 15 8s8-1 13-6l4-3-6-4c-5-3-9-6-12-11-1-2-2-2-4 0m50 1c-2 4-8 9-13 12-4 1-4 2-3 3 3 3 8 7 12 8 5 1 13-1 17-5 3-3 6-10 5-11l-5-3c-2-1-6-3-7-5l-4-2-2 3m-25 22-8 5-4 4c0 3 9 7 15 7 4 0 11-3 13-6 2-2 2-2 0-3-2 0-5-3-8-5l-6-5-2 3"
      fill-rule="evenodd"
   />
</svg>
